<svg id="visual" viewBox="0 0 960 540" width="960" height="540" xmlns="http://www.w3.org/2000/svg" xmlns:xlink="http://www.w3.org/1999/xlink" version="1.1"><rect x="0" y="0" width="960" height="540" fill="#0066FF"></rect><path d="M0 420L22.8 421.2C45.7 422.3 91.3 424.7 137 411.5C182.7 398.3 228.3 369.7 274 366.5C319.7 363.3 365.3 385.7 411.2 400.7C457 415.7 503 423.3 548.8 426.3C594.7 429.3 640.3 427.7 686 416.3C731.7 405 777.3 384 823 373.3C868.7 362.7 914.3 362.3 937.2 362.2L960 362L960 541L937.2 541C914.3 541 868.7 541 823 541C777.3 541 731.7 541 686 541C640.3 541 594.7 541 548.8 541C503 541 457 541 411.2 541C365.3 541 319.7 541 274 541C228.3 541 182.7 541 137 541C91.3 541 45.7 541 22.8 541L0 541Z" fill="#FFFFFF" stroke-linecap="round" stroke-linejoin="miter"></path></svg>